<?xml version="1.0" standalone="no"?>
<!DOCTYPE svg PUBLIC "-//W3C//DTD SVG 20010904//EN"
 "http://www.w3.org/TR/2001/REC-SVG-20010904/DTD/svg10.dtd">
<svg version="1.0" xmlns="http://www.w3.org/2000/svg"
 width="512.000000pt" height="512.000000pt" viewBox="0 0 512.000000 512.000000"
 preserveAspectRatio="xMidYMid meet">

<g transform="translate(0.000000,512.000000) scale(0.100000,-0.100000)"
fill="#000000" stroke="none">
<path d="M2480 4840 l0 -120 80 0 80 0 0 120 0 120 -80 0 -80 0 0 -120z"/>
<path d="M1837 4642 c-26 -26 -47 -52 -47 -58 0 -5 34 -43 75 -84 l75 -75 57
58 58 57 -75 75 c-41 41 -79 75 -85 75 -6 0 -32 -22 -58 -48z"/>
<path d="M3142 4617 c-39 -40 -72 -77 -72 -83 0 -13 92 -104 106 -104 5 0 43
34 84 75 l74 75 -54 55 c-30 30 -57 55 -60 55 -3 0 -38 -33 -78 -73z"/>
<path d="M2422 4545 c-286 -62 -502 -331 -502 -625 0 -273 189 -529 450 -611
223 -70 469 -8 641 161 251 249 251 649 0 901 -156 155 -376 220 -589 174z
m253 -160 c256 -67 415 -329 350 -578 -45 -173 -178 -307 -350 -352 -251 -65
-513 94 -580 350 -89 342 238 669 580 580z"/>
<path d="M3445 4457 c-15 -34 -29 -67 -32 -74 -2 -6 31 -30 78 -54 183 -95
362 -231 515 -391 123 -130 181 -208 323 -438 8 -13 19 -10 75 19 36 18 66 38
66 43 0 6 -24 51 -54 101 -198 336 -529 647 -873 820 l-71 36 -27 -62z"/>
<path d="M1530 4459 c-182 -99 -389 -257 -527 -403 -73 -76 -203 -235 -203
-247 0 -6 114 -89 123 -89 2 0 36 39 74 88 163 203 417 413 632 521 l60 31
-32 70 c-17 38 -36 70 -41 70 -6 0 -45 -19 -86 -41z"/>
<path d="M1520 3920 l0 -80 120 0 120 0 0 80 0 80 -120 0 -120 0 0 -80z"/>
<path d="M3360 3920 l0 -80 120 0 120 0 0 80 0 80 -120 0 -120 0 0 -80z"/>
<path d="M1120 3498 l0 -103 -88 88 c-48 48 -92 87 -98 87 -13 0 -104 -92
-104 -105 0 -6 65 -75 145 -155 l145 -145 0 -231 0 -232 -199 120 -199 119
-41 167 c-23 92 -46 183 -52 203 l-9 37 -71 -18 c-39 -10 -73 -21 -76 -24 -3
-3 7 -55 22 -116 15 -61 25 -113 22 -117 -3 -3 -40 16 -82 41 -42 25 -79 46
-83 46 -8 0 -86 -130 -80 -135 1 -2 41 -26 87 -53 l84 -51 -39 -10 c-22 -5
-78 -20 -125 -31 l-86 -22 19 -77 20 -78 203 51 203 50 201 -120 c110 -65 200
-121 200 -124 0 -3 -90 -59 -200 -124 l-201 -120 -203 50 -203 51 -20 -78 -19
-77 86 -22 c47 -11 103 -26 125 -31 l39 -10 -84 -51 c-46 -27 -86 -51 -87 -53
-6 -5 72 -135 80 -135 4 0 41 21 83 46 42 25 79 44 82 41 3 -4 -7 -56 -22
-117 -15 -61 -25 -113 -22 -116 3 -3 37 -14 76 -24 l71 -18 9 37 c6 20 29 111
52 203 l41 167 199 119 199 120 0 -232 0 -231 -147 -147 -148 -148 58 -57 57
-58 90 90 90 90 0 -103 0 -102 80 0 80 0 0 102 0 103 90 -90 90 -90 57 58 58
57 -148 148 -147 147 0 232 0 232 199 -119 198 -120 42 -167 c23 -93 46 -184
52 -204 l9 -37 71 18 c39 10 73 21 76 24 3 3 -6 53 -21 110 -14 58 -26 112
-26 120 0 11 26 0 85 -36 47 -28 87 -49 89 -47 14 19 77 131 75 134 -2 1 -42
26 -88 53 l-84 51 39 10 c22 5 78 20 125 31 l86 22 -19 77 -20 78 -203 -51
-203 -50 -201 120 c-110 65 -200 121 -200 124 0 3 90 59 200 124 l201 120 203
-50 203 -51 20 78 19 77 -86 22 c-47 11 -103 26 -125 31 l-39 10 84 51 c46 27
86 52 88 53 2 3 -61 115 -75 134 -2 2 -42 -19 -89 -47 -59 -36 -85 -47 -85
-36 0 8 12 62 26 120 15 57 24 107 21 110 -3 3 -37 14 -76 24 l-71 18 -9 -37
c-6 -20 -29 -111 -52 -204 l-42 -167 -198 -120 -199 -119 0 232 0 232 145 145
c80 80 145 149 145 155 0 13 -92 105 -105 105 -5 0 -49 -39 -97 -87 l-88 -88
0 103 0 102 -80 0 -80 0 0 -102z"/>
<path d="M3881 3424 c-169 -45 -301 -180 -346 -351 -8 -31 -15 -71 -15 -88 l0
-30 -88 0 c-76 -1 -95 -4 -154 -32 -93 -43 -151 -100 -196 -191 -35 -72 -37
-81 -37 -172 0 -91 2 -100 37 -172 45 -91 103 -147 196 -191 l67 -32 656 0
655 0 76 37 c91 45 147 103 191 196 29 61 32 76 32 162 0 86 -3 101 -32 162
-44 93 -100 151 -191 195 -69 35 -82 38 -164 38 l-88 0 0 30 c0 17 -7 57 -15
88 -67 259 -333 419 -584 351z m269 -185 c107 -57 164 -155 165 -279 0 -61 -5
-86 -28 -135 l-28 -59 23 -18 c13 -10 40 -30 62 -45 l38 -27 17 21 c9 11 23
34 32 50 17 31 70 53 129 53 124 0 240 -116 240 -240 0 -92 -80 -202 -166
-228 -30 -9 -198 -12 -634 -12 -436 0 -604 3 -634 12 -86 26 -166 136 -166
228 0 124 116 240 240 240 115 0 240 -116 240 -224 0 -13 13 -16 81 -16 l82 0
-7 53 c-9 70 -55 165 -106 221 -35 38 -42 53 -47 99 -11 105 45 228 130 285
74 50 118 62 210 57 51 -3 81 -11 127 -36z"/>
<path d="M3117 3362 c-26 -26 -47 -52 -47 -58 0 -5 34 -43 75 -84 l75 -75 57
58 58 57 -75 75 c-41 41 -79 75 -85 75 -6 0 -32 -22 -58 -48z"/>
<path d="M2480 3000 l0 -120 80 0 80 0 0 120 0 120 -80 0 -80 0 0 -120z"/>
<path d="M3342 1937 c-61 -62 -112 -117 -112 -123 0 -13 92 -104 106 -104 5 0
61 52 124 115 l114 115 -54 55 c-30 30 -57 55 -60 55 -3 0 -56 -51 -118 -113z"/>
<path d="M3822 1937 c-61 -62 -112 -117 -112 -123 0 -13 92 -104 106 -104 5 0
61 52 124 115 l114 115 -54 55 c-30 30 -57 55 -60 55 -3 0 -56 -51 -118 -113z"/>
<path d="M4302 1937 c-61 -62 -112 -117 -112 -123 0 -13 92 -104 106 -104 5 0
61 52 124 115 l114 115 -54 55 c-30 30 -57 55 -60 55 -3 0 -56 -51 -118 -113z"/>
<path d="M2560 1659 c74 -154 93 -235 93 -399 0 -120 -3 -148 -31 -252 -21
-74 -32 -140 -32 -181 0 -132 67 -266 170 -342 27 -20 50 -40 50 -44 0 -4 -31
-37 -68 -73 l-68 -66 43 -59 c24 -32 47 -59 52 -61 13 -4 134 113 171 167 31
45 39 50 72 51 201 2 380 151 418 347 16 81 8 328 -13 403 -58 209 -172 369
-344 480 -130 86 -246 120 -431 127 l-132 6 50 -104z m385 -137 c88 -47 199
-155 248 -243 20 -36 37 -72 37 -80 0 -8 -25 -39 -55 -69 l-55 -54 0 62 0 62
-80 0 -80 0 0 -102 0 -103 -71 71 -71 71 -3 139 c-2 100 -9 162 -24 222 -12
46 -21 85 -21 87 0 10 113 -31 175 -63z m325 -761 c-21 -86 -105 -172 -180
-188 l-30 -5 20 56 c10 31 24 93 31 138 l11 83 77 78 76 78 3 -98 c2 -54 -2
-118 -8 -142z m-326 -26 c-8 -50 -43 -145 -53 -145 -4 0 -27 17 -51 37 -78 67
-109 179 -79 287 l11 39 89 -89 c89 -88 90 -89 83 -129z"/>
<path d="M2199 1681 c-35 -33 -80 -82 -99 -110 -33 -47 -38 -50 -80 -51 -191
-2 -367 -149 -410 -341 -16 -74 -8 -333 13 -409 58 -210 172 -368 345 -481
129 -85 246 -119 430 -126 l132 -6 -50 104 c-74 154 -93 235 -93 399 0 120 3
148 31 252 21 74 32 140 32 181 0 132 -67 266 -170 342 -27 20 -50 40 -50 44
0 4 31 37 68 73 l68 66 -43 59 c-24 32 -47 59 -52 61 -4 1 -36 -24 -72 -57z
m-244 -408 c-13 -43 -26 -105 -30 -139 -6 -60 -8 -63 -86 -140 l-79 -79 0 106
c0 127 17 190 65 246 34 40 104 83 136 83 14 0 13 -9 -6 -77z m245 20 c78 -67
109 -179 79 -287 l-11 -39 -89 89 c-89 88 -90 89 -83 129 8 50 43 145 53 145
4 0 27 -17 51 -37z m25 -649 c2 -101 9 -162 24 -223 12 -46 20 -85 18 -87 -7
-7 -144 48 -195 78 -78 46 -182 152 -225 230 -21 36 -37 71 -37 79 0 8 25 39
55 69 l55 54 0 -62 0 -62 80 0 80 0 0 102 0 103 71 -71 71 -71 3 -139z"/>
<path d="M4240 1477 c-139 -223 -389 -470 -620 -613 l-59 -36 27 -47 c15 -26
34 -57 42 -69 l15 -22 79 51 c270 173 526 435 685 701 l21 36 -64 36 c-35 20
-68 36 -73 36 -4 -1 -28 -33 -53 -73z"/>
<path d="M870 1350 c-30 -22 -56 -44 -58 -49 -5 -15 118 -163 222 -267 103
-102 212 -194 316 -264 l58 -39 42 66 c41 66 42 68 22 83 -11 8 -60 44 -108
80 -109 79 -283 246 -366 352 -34 43 -64 78 -67 78 -3 0 -31 -19 -61 -40z"/>
</g>
</svg>
